<mxfile host="app.diagrams.net" modified="2023-09-29T09:59:13.525Z" agent="Mozilla/5.0 (Windows NT 10.0; Win64; x64) AppleWebKit/537.36 (KHTML, like Gecko) Chrome/117.0.0.0 Safari/537.36" etag="6yOOcsTXKuHds5v6Z81I" version="22.0.0" type="device">
  <diagram name="Page-1" id="PYaOCJAYep7NYIfBhage">
    <mxGraphModel dx="2591" dy="1631" grid="1" gridSize="10" guides="1" tooltips="1" connect="1" arrows="1" fold="1" page="1" pageScale="1" pageWidth="827" pageHeight="1169" math="0" shadow="0">
      <root>
        <mxCell id="0" />
        <mxCell id="1" parent="0" />
        <mxCell id="XgDgFOluL6LLKpRQZRf--58" style="edgeStyle=orthogonalEdgeStyle;rounded=0;orthogonalLoop=1;jettySize=auto;html=1;" parent="1" source="XgDgFOluL6LLKpRQZRf--3" target="XgDgFOluL6LLKpRQZRf--7" edge="1">
          <mxGeometry relative="1" as="geometry" />
        </mxCell>
        <mxCell id="XgDgFOluL6LLKpRQZRf--3" value="input&lt;br&gt;credentials" style="shape=parallelogram;html=1;strokeWidth=2;perimeter=parallelogramPerimeter;whiteSpace=wrap;rounded=1;arcSize=12;size=0.23;" parent="1" vertex="1">
          <mxGeometry x="110" y="150" width="100" height="60" as="geometry" />
        </mxCell>
        <mxCell id="XgDgFOluL6LLKpRQZRf--15" value="false" style="edgeStyle=orthogonalEdgeStyle;rounded=0;orthogonalLoop=1;jettySize=auto;html=1;" parent="1" source="XgDgFOluL6LLKpRQZRf--5" target="XgDgFOluL6LLKpRQZRf--11" edge="1">
          <mxGeometry relative="1" as="geometry" />
        </mxCell>
        <mxCell id="XgDgFOluL6LLKpRQZRf--29" value="true" style="edgeStyle=orthogonalEdgeStyle;rounded=0;orthogonalLoop=1;jettySize=auto;html=1;" parent="1" source="XgDgFOluL6LLKpRQZRf--5" target="XgDgFOluL6LLKpRQZRf--28" edge="1">
          <mxGeometry relative="1" as="geometry" />
        </mxCell>
        <mxCell id="XgDgFOluL6LLKpRQZRf--5" value="if credentials&lt;br&gt;valid" style="strokeWidth=2;html=1;shape=mxgraph.flowchart.decision;whiteSpace=wrap;" parent="1" vertex="1">
          <mxGeometry x="380" y="130" width="100" height="100" as="geometry" />
        </mxCell>
        <mxCell id="XgDgFOluL6LLKpRQZRf--59" style="edgeStyle=orthogonalEdgeStyle;rounded=0;orthogonalLoop=1;jettySize=auto;html=1;" parent="1" source="XgDgFOluL6LLKpRQZRf--7" target="XgDgFOluL6LLKpRQZRf--5" edge="1">
          <mxGeometry relative="1" as="geometry" />
        </mxCell>
        <mxCell id="XgDgFOluL6LLKpRQZRf--7" value="validate credentials" style="verticalLabelPosition=bottom;verticalAlign=top;html=1;shape=process;whiteSpace=wrap;rounded=1;size=0.14;arcSize=6;" parent="1" vertex="1">
          <mxGeometry x="240" y="150" width="100" height="60" as="geometry" />
        </mxCell>
        <mxCell id="XgDgFOluL6LLKpRQZRf--97" style="edgeStyle=orthogonalEdgeStyle;rounded=0;orthogonalLoop=1;jettySize=auto;html=1;" parent="1" source="XgDgFOluL6LLKpRQZRf--11" target="XgDgFOluL6LLKpRQZRf--95" edge="1">
          <mxGeometry relative="1" as="geometry" />
        </mxCell>
        <mxCell id="XgDgFOluL6LLKpRQZRf--11" value="output&lt;br&gt;unauthorised&lt;br&gt;error" style="shape=parallelogram;html=1;strokeWidth=2;perimeter=parallelogramPerimeter;whiteSpace=wrap;rounded=1;arcSize=12;size=0.23;" parent="1" vertex="1">
          <mxGeometry x="380" y="30" width="100" height="60" as="geometry" />
        </mxCell>
        <mxCell id="XgDgFOluL6LLKpRQZRf--24" style="edgeStyle=orthogonalEdgeStyle;rounded=0;orthogonalLoop=1;jettySize=auto;html=1;" parent="1" source="XgDgFOluL6LLKpRQZRf--13" target="XgDgFOluL6LLKpRQZRf--22" edge="1">
          <mxGeometry relative="1" as="geometry" />
        </mxCell>
        <mxCell id="XgDgFOluL6LLKpRQZRf--13" value="input&lt;br&gt;file" style="shape=parallelogram;html=1;strokeWidth=2;perimeter=parallelogramPerimeter;whiteSpace=wrap;rounded=1;arcSize=12;size=0.23;" parent="1" vertex="1">
          <mxGeometry x="527" y="300" width="100" height="60" as="geometry" />
        </mxCell>
        <mxCell id="XgDgFOluL6LLKpRQZRf--56" style="edgeStyle=orthogonalEdgeStyle;rounded=0;orthogonalLoop=1;jettySize=auto;html=1;" parent="1" source="XgDgFOluL6LLKpRQZRf--16" target="XgDgFOluL6LLKpRQZRf--37" edge="1">
          <mxGeometry relative="1" as="geometry" />
        </mxCell>
        <mxCell id="XgDgFOluL6LLKpRQZRf--16" value="start" style="strokeWidth=2;html=1;shape=mxgraph.flowchart.terminator;whiteSpace=wrap;" parent="1" vertex="1">
          <mxGeometry x="-200" y="150" width="100" height="60" as="geometry" />
        </mxCell>
        <mxCell id="wxmVe6t9bV7o2cZCEyKk-8" style="edgeStyle=orthogonalEdgeStyle;rounded=0;orthogonalLoop=1;jettySize=auto;html=1;" edge="1" parent="1" source="XgDgFOluL6LLKpRQZRf--17" target="XgDgFOluL6LLKpRQZRf--98">
          <mxGeometry relative="1" as="geometry" />
        </mxCell>
        <mxCell id="XgDgFOluL6LLKpRQZRf--17" value="file store" style="strokeWidth=2;html=1;shape=mxgraph.flowchart.database;whiteSpace=wrap;" parent="1" vertex="1">
          <mxGeometry x="809" y="285" width="60" height="90" as="geometry" />
        </mxCell>
        <mxCell id="XgDgFOluL6LLKpRQZRf--23" style="edgeStyle=orthogonalEdgeStyle;rounded=0;orthogonalLoop=1;jettySize=auto;html=1;" parent="1" source="XgDgFOluL6LLKpRQZRf--22" target="XgDgFOluL6LLKpRQZRf--17" edge="1">
          <mxGeometry relative="1" as="geometry" />
        </mxCell>
        <mxCell id="XgDgFOluL6LLKpRQZRf--22" value="store file and credentials" style="rounded=1;whiteSpace=wrap;html=1;absoluteArcSize=1;arcSize=14;strokeWidth=2;" parent="1" vertex="1">
          <mxGeometry x="661" y="307.5" width="100" height="45" as="geometry" />
        </mxCell>
        <mxCell id="XgDgFOluL6LLKpRQZRf--25" value="end" style="strokeWidth=2;html=1;shape=mxgraph.flowchart.terminator;whiteSpace=wrap;" parent="1" vertex="1">
          <mxGeometry x="921" y="442" width="100" height="60" as="geometry" />
        </mxCell>
        <mxCell id="XgDgFOluL6LLKpRQZRf--30" style="edgeStyle=orthogonalEdgeStyle;rounded=0;orthogonalLoop=1;jettySize=auto;html=1;" parent="1" source="XgDgFOluL6LLKpRQZRf--28" target="XgDgFOluL6LLKpRQZRf--13" edge="1">
          <mxGeometry relative="1" as="geometry" />
        </mxCell>
        <mxCell id="XgDgFOluL6LLKpRQZRf--33" value="true" style="edgeStyle=orthogonalEdgeStyle;rounded=0;orthogonalLoop=1;jettySize=auto;html=1;" parent="1" source="XgDgFOluL6LLKpRQZRf--28" target="XgDgFOluL6LLKpRQZRf--13" edge="1">
          <mxGeometry relative="1" as="geometry" />
        </mxCell>
        <mxCell id="wxmVe6t9bV7o2cZCEyKk-11" value="false" style="edgeStyle=orthogonalEdgeStyle;rounded=0;orthogonalLoop=1;jettySize=auto;html=1;" edge="1" parent="1" source="XgDgFOluL6LLKpRQZRf--28" target="XgDgFOluL6LLKpRQZRf--70">
          <mxGeometry relative="1" as="geometry" />
        </mxCell>
        <mxCell id="XgDgFOluL6LLKpRQZRf--28" value="if method is&lt;br&gt;POST" style="strokeWidth=2;html=1;shape=mxgraph.flowchart.decision;whiteSpace=wrap;" parent="1" vertex="1">
          <mxGeometry x="380" y="280" width="100" height="100" as="geometry" />
        </mxCell>
        <mxCell id="XgDgFOluL6LLKpRQZRf--36" value="true" style="edgeStyle=orthogonalEdgeStyle;rounded=0;orthogonalLoop=1;jettySize=auto;html=1;" parent="1" source="XgDgFOluL6LLKpRQZRf--31" target="XgDgFOluL6LLKpRQZRf--35" edge="1">
          <mxGeometry relative="1" as="geometry" />
        </mxCell>
        <mxCell id="wxmVe6t9bV7o2cZCEyKk-13" value="false" style="edgeStyle=orthogonalEdgeStyle;rounded=0;orthogonalLoop=1;jettySize=auto;html=1;" edge="1" parent="1" source="XgDgFOluL6LLKpRQZRf--31" target="XgDgFOluL6LLKpRQZRf--88">
          <mxGeometry relative="1" as="geometry" />
        </mxCell>
        <mxCell id="XgDgFOluL6LLKpRQZRf--31" value="if method is&lt;br&gt;GET" style="strokeWidth=2;html=1;shape=mxgraph.flowchart.decision;whiteSpace=wrap;" parent="1" vertex="1">
          <mxGeometry x="380" y="550" width="100" height="100" as="geometry" />
        </mxCell>
        <mxCell id="XgDgFOluL6LLKpRQZRf--122" style="edgeStyle=orthogonalEdgeStyle;rounded=0;orthogonalLoop=1;jettySize=auto;html=1;" parent="1" source="XgDgFOluL6LLKpRQZRf--35" target="XgDgFOluL6LLKpRQZRf--121" edge="1">
          <mxGeometry relative="1" as="geometry" />
        </mxCell>
        <mxCell id="XgDgFOluL6LLKpRQZRf--35" value="input&lt;br&gt;file location" style="shape=parallelogram;html=1;strokeWidth=2;perimeter=parallelogramPerimeter;whiteSpace=wrap;rounded=1;arcSize=12;size=0.23;" parent="1" vertex="1">
          <mxGeometry x="520" y="570" width="100" height="60" as="geometry" />
        </mxCell>
        <mxCell id="XgDgFOluL6LLKpRQZRf--53" value="true" style="edgeStyle=orthogonalEdgeStyle;rounded=0;orthogonalLoop=1;jettySize=auto;html=1;" parent="1" source="XgDgFOluL6LLKpRQZRf--37" target="XgDgFOluL6LLKpRQZRf--3" edge="1">
          <mxGeometry relative="1" as="geometry" />
        </mxCell>
        <mxCell id="XgDgFOluL6LLKpRQZRf--55" value="false" style="edgeStyle=orthogonalEdgeStyle;rounded=0;orthogonalLoop=1;jettySize=auto;html=1;" parent="1" source="XgDgFOluL6LLKpRQZRf--37" target="XgDgFOluL6LLKpRQZRf--54" edge="1">
          <mxGeometry relative="1" as="geometry" />
        </mxCell>
        <mxCell id="XgDgFOluL6LLKpRQZRf--37" value="if url is&lt;br&gt;/api/upload" style="strokeWidth=2;html=1;shape=mxgraph.flowchart.decision;whiteSpace=wrap;" parent="1" vertex="1">
          <mxGeometry x="-40" y="130" width="100" height="100" as="geometry" />
        </mxCell>
        <mxCell id="wxmVe6t9bV7o2cZCEyKk-14" style="edgeStyle=orthogonalEdgeStyle;rounded=0;orthogonalLoop=1;jettySize=auto;html=1;" edge="1" parent="1" source="XgDgFOluL6LLKpRQZRf--50" target="XgDgFOluL6LLKpRQZRf--25">
          <mxGeometry relative="1" as="geometry" />
        </mxCell>
        <mxCell id="XgDgFOluL6LLKpRQZRf--50" value="output file" style="shape=parallelogram;html=1;strokeWidth=2;perimeter=parallelogramPerimeter;whiteSpace=wrap;rounded=1;arcSize=12;size=0.23;" parent="1" vertex="1">
          <mxGeometry x="802" y="570" width="100" height="60" as="geometry" />
        </mxCell>
        <mxCell id="XgDgFOluL6LLKpRQZRf--96" style="edgeStyle=orthogonalEdgeStyle;rounded=0;orthogonalLoop=1;jettySize=auto;html=1;" parent="1" source="XgDgFOluL6LLKpRQZRf--54" target="XgDgFOluL6LLKpRQZRf--95" edge="1">
          <mxGeometry relative="1" as="geometry" />
        </mxCell>
        <mxCell id="XgDgFOluL6LLKpRQZRf--54" value="output&lt;br&gt;404 error" style="shape=parallelogram;html=1;strokeWidth=2;perimeter=parallelogramPerimeter;whiteSpace=wrap;rounded=1;arcSize=12;size=0.23;" parent="1" vertex="1">
          <mxGeometry x="-40" y="30" width="100" height="60" as="geometry" />
        </mxCell>
        <mxCell id="XgDgFOluL6LLKpRQZRf--87" value="true" style="edgeStyle=orthogonalEdgeStyle;rounded=0;orthogonalLoop=1;jettySize=auto;html=1;" parent="1" source="XgDgFOluL6LLKpRQZRf--70" target="XgDgFOluL6LLKpRQZRf--85" edge="1">
          <mxGeometry relative="1" as="geometry" />
        </mxCell>
        <mxCell id="wxmVe6t9bV7o2cZCEyKk-12" value="false" style="edgeStyle=orthogonalEdgeStyle;rounded=0;orthogonalLoop=1;jettySize=auto;html=1;" edge="1" parent="1" source="XgDgFOluL6LLKpRQZRf--70" target="XgDgFOluL6LLKpRQZRf--31">
          <mxGeometry relative="1" as="geometry" />
        </mxCell>
        <mxCell id="XgDgFOluL6LLKpRQZRf--70" value="if method is&lt;br&gt;DELETE" style="strokeWidth=2;html=1;shape=mxgraph.flowchart.decision;whiteSpace=wrap;" parent="1" vertex="1">
          <mxGeometry x="380" y="415" width="100" height="100" as="geometry" />
        </mxCell>
        <mxCell id="XgDgFOluL6LLKpRQZRf--123" style="edgeStyle=orthogonalEdgeStyle;rounded=0;orthogonalLoop=1;jettySize=auto;html=1;" parent="1" source="XgDgFOluL6LLKpRQZRf--85" target="XgDgFOluL6LLKpRQZRf--120" edge="1">
          <mxGeometry relative="1" as="geometry" />
        </mxCell>
        <mxCell id="XgDgFOluL6LLKpRQZRf--85" value="input&lt;br&gt;file location" style="shape=parallelogram;html=1;strokeWidth=2;perimeter=parallelogramPerimeter;whiteSpace=wrap;rounded=1;arcSize=12;size=0.23;" parent="1" vertex="1">
          <mxGeometry x="520" y="435" width="100" height="60" as="geometry" />
        </mxCell>
        <mxCell id="XgDgFOluL6LLKpRQZRf--90" style="edgeStyle=orthogonalEdgeStyle;rounded=0;orthogonalLoop=1;jettySize=auto;html=1;" parent="1" source="XgDgFOluL6LLKpRQZRf--88" target="XgDgFOluL6LLKpRQZRf--25" edge="1">
          <mxGeometry relative="1" as="geometry" />
        </mxCell>
        <mxCell id="XgDgFOluL6LLKpRQZRf--88" value="output&lt;br&gt;405 error" style="shape=parallelogram;html=1;strokeWidth=2;perimeter=parallelogramPerimeter;whiteSpace=wrap;rounded=1;arcSize=12;size=0.23;" parent="1" vertex="1">
          <mxGeometry x="380" y="719" width="100" height="60" as="geometry" />
        </mxCell>
        <mxCell id="XgDgFOluL6LLKpRQZRf--95" value="end" style="strokeWidth=2;html=1;shape=mxgraph.flowchart.terminator;whiteSpace=wrap;" parent="1" vertex="1">
          <mxGeometry x="170" y="30" width="100" height="60" as="geometry" />
        </mxCell>
        <mxCell id="XgDgFOluL6LLKpRQZRf--100" style="edgeStyle=orthogonalEdgeStyle;rounded=0;orthogonalLoop=1;jettySize=auto;html=1;" parent="1" source="XgDgFOluL6LLKpRQZRf--98" target="XgDgFOluL6LLKpRQZRf--25" edge="1">
          <mxGeometry relative="1" as="geometry" />
        </mxCell>
        <mxCell id="XgDgFOluL6LLKpRQZRf--98" value="output&lt;br&gt;success" style="shape=parallelogram;html=1;strokeWidth=2;perimeter=parallelogramPerimeter;whiteSpace=wrap;rounded=1;arcSize=12;size=0.23;" parent="1" vertex="1">
          <mxGeometry x="921" y="300" width="100" height="60" as="geometry" />
        </mxCell>
        <mxCell id="XgDgFOluL6LLKpRQZRf--114" style="edgeStyle=orthogonalEdgeStyle;rounded=0;orthogonalLoop=1;jettySize=auto;html=1;" parent="1" source="XgDgFOluL6LLKpRQZRf--107" target="XgDgFOluL6LLKpRQZRf--110" edge="1">
          <mxGeometry relative="1" as="geometry" />
        </mxCell>
        <mxCell id="XgDgFOluL6LLKpRQZRf--107" value="assert is author" style="strokeWidth=2;html=1;shape=mxgraph.flowchart.terminator;whiteSpace=wrap;" parent="1" vertex="1">
          <mxGeometry x="-200" y="280" width="100" height="60" as="geometry" />
        </mxCell>
        <mxCell id="XgDgFOluL6LLKpRQZRf--108" value="false" style="edgeStyle=orthogonalEdgeStyle;rounded=0;orthogonalLoop=1;jettySize=auto;html=1;" parent="1" source="XgDgFOluL6LLKpRQZRf--110" target="XgDgFOluL6LLKpRQZRf--111" edge="1">
          <mxGeometry relative="1" as="geometry" />
        </mxCell>
        <mxCell id="XgDgFOluL6LLKpRQZRf--109" value="true" style="edgeStyle=orthogonalEdgeStyle;rounded=0;orthogonalLoop=1;jettySize=auto;html=1;" parent="1" source="XgDgFOluL6LLKpRQZRf--110" target="XgDgFOluL6LLKpRQZRf--113" edge="1">
          <mxGeometry relative="1" as="geometry" />
        </mxCell>
        <mxCell id="XgDgFOluL6LLKpRQZRf--110" value="if file exists" style="strokeWidth=2;html=1;shape=mxgraph.flowchart.decision;whiteSpace=wrap;" parent="1" vertex="1">
          <mxGeometry x="-50" y="260" width="100" height="100" as="geometry" />
        </mxCell>
        <mxCell id="XgDgFOluL6LLKpRQZRf--119" style="edgeStyle=orthogonalEdgeStyle;rounded=0;orthogonalLoop=1;jettySize=auto;html=1;" parent="1" source="XgDgFOluL6LLKpRQZRf--111" target="XgDgFOluL6LLKpRQZRf--118" edge="1">
          <mxGeometry relative="1" as="geometry" />
        </mxCell>
        <mxCell id="XgDgFOluL6LLKpRQZRf--111" value="output&lt;br&gt;unauthorised error" style="shape=parallelogram;html=1;strokeWidth=2;perimeter=parallelogramPerimeter;whiteSpace=wrap;rounded=1;arcSize=12;size=0.23;" parent="1" vertex="1">
          <mxGeometry x="130" y="422" width="100" height="60" as="geometry" />
        </mxCell>
        <mxCell id="XgDgFOluL6LLKpRQZRf--112" value="false" style="edgeStyle=orthogonalEdgeStyle;rounded=0;orthogonalLoop=1;jettySize=auto;html=1;" parent="1" source="XgDgFOluL6LLKpRQZRf--113" target="XgDgFOluL6LLKpRQZRf--111" edge="1">
          <mxGeometry relative="1" as="geometry" />
        </mxCell>
        <mxCell id="XgDgFOluL6LLKpRQZRf--116" value="true" style="edgeStyle=orthogonalEdgeStyle;rounded=0;orthogonalLoop=1;jettySize=auto;html=1;" parent="1" source="XgDgFOluL6LLKpRQZRf--113" target="XgDgFOluL6LLKpRQZRf--115" edge="1">
          <mxGeometry relative="1" as="geometry" />
        </mxCell>
        <mxCell id="XgDgFOluL6LLKpRQZRf--113" value="if credentials&lt;br style=&quot;border-color: var(--border-color);&quot;&gt;are same&lt;br style=&quot;border-color: var(--border-color);&quot;&gt;OR&lt;br style=&quot;border-color: var(--border-color);&quot;&gt;is admin" style="strokeWidth=2;html=1;shape=mxgraph.flowchart.decision;whiteSpace=wrap;" parent="1" vertex="1">
          <mxGeometry x="-80" y="402" width="160" height="100" as="geometry" />
        </mxCell>
        <mxCell id="XgDgFOluL6LLKpRQZRf--115" value="end" style="strokeWidth=2;html=1;shape=mxgraph.flowchart.terminator;whiteSpace=wrap;" parent="1" vertex="1">
          <mxGeometry x="-50" y="558" width="100" height="60" as="geometry" />
        </mxCell>
        <mxCell id="XgDgFOluL6LLKpRQZRf--118" value="short-circuit end" style="strokeWidth=2;html=1;shape=mxgraph.flowchart.terminator;whiteSpace=wrap;" parent="1" vertex="1">
          <mxGeometry x="130" y="558" width="100" height="60" as="geometry" />
        </mxCell>
        <mxCell id="wxmVe6t9bV7o2cZCEyKk-5" style="edgeStyle=orthogonalEdgeStyle;rounded=0;orthogonalLoop=1;jettySize=auto;html=1;" edge="1" parent="1" source="XgDgFOluL6LLKpRQZRf--120" target="wxmVe6t9bV7o2cZCEyKk-2">
          <mxGeometry relative="1" as="geometry" />
        </mxCell>
        <mxCell id="XgDgFOluL6LLKpRQZRf--120" value="assert is author" style="verticalLabelPosition=bottom;verticalAlign=top;html=1;shape=process;whiteSpace=wrap;rounded=1;size=0.14;arcSize=6;" parent="1" vertex="1">
          <mxGeometry x="653" y="435" width="100" height="60" as="geometry" />
        </mxCell>
        <mxCell id="XgDgFOluL6LLKpRQZRf--126" style="edgeStyle=orthogonalEdgeStyle;rounded=0;orthogonalLoop=1;jettySize=auto;html=1;" parent="1" source="XgDgFOluL6LLKpRQZRf--121" target="XgDgFOluL6LLKpRQZRf--50" edge="1">
          <mxGeometry relative="1" as="geometry" />
        </mxCell>
        <mxCell id="XgDgFOluL6LLKpRQZRf--121" value="assert is author" style="verticalLabelPosition=bottom;verticalAlign=top;html=1;shape=process;whiteSpace=wrap;rounded=1;size=0.14;arcSize=6;" parent="1" vertex="1">
          <mxGeometry x="666" y="570" width="100" height="60" as="geometry" />
        </mxCell>
        <mxCell id="wxmVe6t9bV7o2cZCEyKk-9" style="edgeStyle=orthogonalEdgeStyle;rounded=0;orthogonalLoop=1;jettySize=auto;html=1;" edge="1" parent="1" source="wxmVe6t9bV7o2cZCEyKk-2" target="XgDgFOluL6LLKpRQZRf--17">
          <mxGeometry relative="1" as="geometry" />
        </mxCell>
        <mxCell id="wxmVe6t9bV7o2cZCEyKk-2" value="delete file" style="rounded=1;whiteSpace=wrap;html=1;absoluteArcSize=1;arcSize=14;strokeWidth=2;" vertex="1" parent="1">
          <mxGeometry x="789" y="442.5" width="100" height="45" as="geometry" />
        </mxCell>
      </root>
    </mxGraphModel>
  </diagram>
</mxfile>
